# xmcd
#
# Track frame offsets:
#	150
#	19891
#	35512
#	49125
#	60983
#	76904
#	92272
#	111175
#	122104
#	137090
#	150901
#	161836
#	171431
#	186527
#	201402
#	215522
#	228289
#
# Disc length: 3199 seconds
#
# Revision: 4
# Processed by: cddbd v1.5.2PL0 Copyright (c) Steve Scherf et al.
# Submitted via: audiograbber 1.83.01
#
DISCID=e60c7d11
DTITLE=Various Artist - Countri, unlimited collection [CD 1)
DYEAR=1900
DGENRE=
TTITLE0=Kenny Rogers - Lay it down
TTITLE1=Kenny Rogers - My Washington woman
TTITLE2=Kenny Rogers - A stranger in my place
TTITLE3=Kenny Rogers - Calico silver
TTITLE4=Kenny Rogers - Good lady of Toronto
TTITLE5=Kenny Rogers - Tell it all brother
TTITLE6=Kenny Rogers - The king of Oak street
TTITLE7=Kenny Rogers - We all got to help each other
TTITLE8=Kenny Rogers - For the good times
TTITLE9=Kenny Rogers - I´m gonna sing you a sad song Suzie
TTITLE10=Kenny Rogers - She even woke up to say goodbye
TTITLE11=Kenny Rogers and The First Edition - Camptown ladies
TTITLE12=Kenny Rogers - Heed the call
TTITLE13=Kenny Rogers and The First Edition - After all (I live my life)
TTITLE14=Kenny Rogers - Molly
TTITLE15=Kenny Rogers - Love woman
TTITLE16=Kenny Rogers - Elvira
EXTD=
EXTT0=
EXTT1=
EXTT2=
EXTT3=
EXTT4=
EXTT5=
EXTT6=
EXTT7=
EXTT8=
EXTT9=
EXTT10=
EXTT11=
EXTT12=
EXTT13=
EXTT14=
EXTT15=
EXTT16=
PLAYORDER=
